<svg width="17" height="18" viewBox="0 0 17 18" fill="none" xmlns="http://www.w3.org/2000/svg">
<path d="M12.75 8.29163C12.75 6.28846 12.75 5.28617 12.1274 4.66425C11.5055 4.04163 10.5032 4.04163 8.5 4.04163H6.375C4.37183 4.04163 3.36954 4.04163 2.74763 4.66425C2.125 5.28617 2.125 6.28846 2.125 8.29163V11.8333C2.125 13.8365 2.125 14.8388 2.74763 15.4607C3.36954 16.0833 4.37183 16.0833 6.375 16.0833H8.5C10.5032 16.0833 11.5055 16.0833 12.1274 15.4607C12.75 14.8388 12.75 13.8365 12.75 11.8333V8.29163Z" stroke="white" stroke-width="1.5"/>
<path d="M12.75 13.9583C13.3136 13.9583 13.8541 13.7344 14.2526 13.3359C14.6511 12.9374 14.875 12.3969 14.875 11.8333V7.58329C14.875 4.91217 14.875 3.57625 14.0448 2.74679C13.2154 1.91663 11.8795 1.91663 9.20833 1.91663H6.375C5.81142 1.91663 5.27091 2.14051 4.8724 2.53902C4.47388 2.93754 4.25 3.47804 4.25 4.04163" stroke="white" stroke-width="1.5"/>
</svg>
