<svg width="17" height="17" viewBox="0 0 17 17" fill="none" xmlns="http://www.w3.org/2000/svg">
<path d="M15.6404 2.71999V2.03999C15.6404 1.85231 15.4884 1.69999 15.3004 1.69999H13.9404C13.8057 1.69999 13.6976 1.70883 13.6004 1.73399V1.69999C13.6004 1.51231 13.4484 1.35999 13.2604 1.35999H11.2204C10.6308 1.35999 10.4176 1.69455 10.2925 2.03999H10.0164C9.93719 1.93425 9.86035 1.79723 9.86035 1.69999C9.86035 1.51231 9.70837 1.35999 9.52035 1.35999H7.14035C6.96661 1.35999 6.82075 1.49361 6.80205 1.66599C6.79423 1.73739 6.64973 2.03999 6.42499 2.03999H5.49339C5.47129 2.01381 5.43933 1.96519 5.41179 1.90297C5.35739 1.77955 5.23499 1.69999 5.10035 1.69999H1.70035C1.51233 1.69999 1.36035 1.85231 1.36035 2.03999V4.75999C1.36035 5.71981 1.64085 6.93497 1.70001 7.18011L1.69729 7.69521L1.46677 7.91315C1.39877 7.97707 1.36035 8.06649 1.36035 8.15999V9.51999C1.36035 9.61042 1.39605 9.69679 1.45997 9.76037L1.70035 10.0007V11.5049L1.37803 12.4725C1.35729 12.5341 1.35491 12.5997 1.37089 12.6626L1.68675 13.9267L1.37837 14.8529C1.34335 14.9566 1.36103 15.0708 1.42495 15.1592C1.48853 15.2476 1.59121 15.3 1.70035 15.3H6.46035C6.55079 15.3 6.63715 15.2643 6.70073 15.2004L6.73133 15.1698C6.91187 15.4166 7.16313 15.64 7.48035 15.64H8.50035C8.75059 15.64 8.96955 15.5308 9.16233 15.4343C9.29425 15.368 9.43059 15.3 9.52035 15.3H11.2204C11.3108 15.3 11.3972 15.2643 11.4607 15.2004L11.5434 15.1177C11.5648 15.1449 11.5852 15.1718 11.6052 15.1976C11.7722 15.4152 11.9446 15.64 12.2404 15.64H13.9404C14.1284 15.64 14.2804 15.488 14.2804 15.3V15.0555L15.2181 15.2894C15.3197 15.3156 15.4275 15.2918 15.5105 15.2269C15.5931 15.1623 15.641 15.0627 15.6404 14.9573C15.64 14.9239 15.6189 11.5879 15.6404 9.86407C15.6414 9.77227 15.6053 9.68421 15.5407 9.61927L15.3004 9.37923V7.81999C15.3004 7.72989 15.2647 7.64319 15.2007 7.57961L15.0341 7.41301L15.2398 7.00161L15.5407 6.70071C15.6047 6.63679 15.6404 6.55009 15.6404 6.45999L15.6353 4.75659C15.6353 4.72905 15.6319 4.70185 15.6254 4.67499L15.3208 3.44011L15.6047 2.87231C15.6281 2.82505 15.6404 2.77269 15.6404 2.71999ZM11.5906 4.07999L12.6256 4.75999L12.2805 6.79999L9.52035 4.75999L11.5906 4.07999ZM5.10035 12.92L3.74035 11.9L4.42035 9.51999L7.14035 12.24L5.10035 12.92ZM12.3084 12.58H10.7216L3.74035 4.39483L5.00957 4.07999L13.2604 10.3761L12.3084 12.58Z" fill="white"/>
</svg>
