<svg width="21" height="20" viewBox="0 0 21 20" fill="none" xmlns="http://www.w3.org/2000/svg">
<path d="M11.8133 7.58057C11.8133 6.60307 12.6058 5.81057 13.5827 5.81057C14.5595 5.81057 15.352 6.60307 15.352 7.57994C15.352 8.55744 14.5602 9.34932 13.5827 9.34932C13.5827 9.34932 13.5827 9.34932 13.582 9.34932C12.6052 9.34932 11.8133 8.55744 11.8133 7.58057C11.8133 7.58057 11.8127 7.58057 11.8127 7.57994L11.8133 7.58057ZM15.9314 7.58432C15.9314 6.28369 14.877 5.22932 13.5764 5.22932C12.2758 5.22932 11.2214 6.28369 11.2214 7.58432C11.2214 8.88494 12.2758 9.93932 13.5764 9.93932C14.8764 9.93744 15.9295 8.88369 15.9314 7.58432ZM7.01641 14.8499L5.86578 14.3737C6.19328 15.0474 6.87266 15.5037 7.65828 15.5037C8.48141 15.5037 9.18828 15.0031 9.48953 14.2893L9.49453 14.2762C9.59141 14.0499 9.64828 13.7862 9.64828 13.5099C9.64828 12.4118 8.75828 11.5218 7.66016 11.5218C7.40703 11.5218 7.16516 11.5693 6.94266 11.6549L6.95641 11.6506L8.14578 12.1424C8.67828 12.3699 9.04516 12.8899 9.04516 13.4949C9.04516 14.3049 8.38828 14.9618 7.57828 14.9618C7.37578 14.9618 7.18328 14.9206 7.00766 14.8468L7.01703 14.8506L7.01641 14.8499ZM10.4833 0.627441C5.57266 0.628066 1.54516 4.40619 1.14703 9.21369L1.14453 9.24744L6.16828 11.3237C6.58578 11.0349 7.10266 10.8631 7.66016 10.8631C7.66078 10.8631 7.66141 10.8631 7.66141 10.8631C7.71078 10.8631 7.75891 10.8662 7.80828 10.8681L10.0427 7.63307V7.58682C10.0445 5.63682 11.6258 4.05682 13.5758 4.05682C15.527 4.05682 17.1089 5.63869 17.1089 7.58994C17.1089 9.54119 15.527 11.1231 13.5758 11.1231H13.4939L10.3102 13.3968C10.3102 13.4374 10.3133 13.4787 10.3133 13.5212C10.3133 13.5218 10.3133 13.5224 10.3133 13.5231C10.3133 14.9868 9.12641 16.1737 7.66266 16.1737C6.38328 16.1737 5.31516 15.2668 5.06703 14.0612L5.06391 14.0443L1.46703 12.5549C2.61766 16.5206 6.21766 19.3706 10.4827 19.3706C15.6583 19.3706 19.8539 15.1749 19.8539 9.99932C19.8539 4.82369 15.6583 0.628066 10.4827 0.628066L10.4833 0.627441Z" fill="#353044"/>
</svg>
