<svg width="14" height="14" viewBox="0 0 14 14" fill="none" xmlns="http://www.w3.org/2000/svg">
<g clip-path="url(#clip0_351_1055)">
<path d="M10.0625 0.875C9.25027 0.875 8.47132 1.19766 7.89699 1.77199C7.32266 2.34632 7 3.12527 7 3.9375V6.125H2.1875C1.8394 6.125 1.50556 6.26328 1.25942 6.50942C1.01328 6.75556 0.875 7.0894 0.875 7.4375V11.8125C0.875 12.1606 1.01328 12.4944 1.25942 12.7406C1.50556 12.9867 1.8394 13.125 2.1875 13.125H8.3125C8.6606 13.125 8.99444 12.9867 9.24058 12.7406C9.48672 12.4944 9.625 12.1606 9.625 11.8125V7.4375C9.625 7.0894 9.48672 6.75556 9.24058 6.50942C8.99444 6.26328 8.6606 6.125 8.3125 6.125V3.9375C8.3125 3.47337 8.49687 3.02825 8.82506 2.70006C9.15325 2.37187 9.59837 2.1875 10.0625 2.1875C10.5266 2.1875 10.9717 2.37187 11.2999 2.70006C11.6281 3.02825 11.8125 3.47337 11.8125 3.9375V5.46875C11.8125 5.6428 11.8816 5.80972 12.0047 5.93279C12.1278 6.05586 12.2947 6.125 12.4688 6.125C12.6428 6.125 12.8097 6.05586 12.9328 5.93279C13.0559 5.80972 13.125 5.6428 13.125 5.46875V3.9375C13.125 3.12527 12.8023 2.34632 12.228 1.77199C11.6537 1.19766 10.8747 0.875 10.0625 0.875Z" fill="white"/>
</g>
<defs>
<clipPath id="clip0_351_1055">
<rect width="14" height="14" fill="white"/>
</clipPath>
</defs>
</svg>
